<?xml version="1.0" encoding="utf-8"?>
<!-- Generator: Adobe Illustrator 16.0.4, SVG Export Plug-In . SVG Version: 6.00 Build 0)  -->
<!DOCTYPE svg PUBLIC "-//W3C//DTD SVG 1.1//EN" "http://www.w3.org/Graphics/SVG/1.1/DTD/svg11.dtd">
<svg version="1.1" id="Layer_1" xmlns="http://www.w3.org/2000/svg" xmlns:xlink="http://www.w3.org/1999/xlink" x="0px" y="0px" viewBox="0 0 403.2 64.8" enable-background="new 0 0 403.2 64.8" xml:space="preserve">
<path fill="#FFFFFF" d="M329.529,58.549l0.047-0.3c0.95,0,1.18-0.244,1.424-1.66l0.395-2.179c0.239-1.416-0.075-1.563-1.107-1.531
	l0.058-0.299l2.329-0.471l-0.783,4.479c-0.257,1.416-0.127,1.66,0.825,1.66l-0.042,0.3H329.529z M327.286,55.467
	c-0.274,1.543-1.112,2.782-2.406,2.782c-1.309,0-1.69-1.239-1.419-2.782c0.284-1.55,1.095-2.787,2.401-2.787
	C327.156,52.68,327.555,53.917,327.286,55.467 M328.233,55.467c0.333-1.822-0.709-3.315-2.286-3.315
	c-1.562,0-3.124,1.493-3.443,3.315c-0.319,1.827,0.7,3.323,2.276,3.323C326.358,58.791,327.924,57.294,328.233,55.467
	 M318.349,52.68c-1.302,0-2.119,1.237-2.398,2.787c-0.27,1.543,0.114,2.782,1.426,2.782c1.287,0,2.13-1.239,2.396-2.782
	C320.04,53.917,319.646,52.68,318.349,52.68 M317.272,58.791c-1.576,0-2.604-1.496-2.271-3.323c0.31-1.822,1.873-3.315,3.438-3.315
	c1.578,0,2.615,1.493,2.289,3.315C320.414,57.294,318.85,58.791,317.272,58.791 M307.808,58.549h2.413
	c1.417,0,1.616,0.185,1.446,1.124h0.3l0.692-1.947h-3.306l2.257-1.678c0,0,1.323-0.854,1.532-1.986
	c0.199-1.183-0.837-1.91-2.081-1.91c-1.469,0-2.461,0.928-2.616,1.853c-0.104,0.481,0.083,0.964,0.534,1.32l0.471-0.442
	c-0.151-0.312-0.184-0.608-0.142-0.878c0.142-0.743,0.88-1.254,1.538-1.254c0.735,0,1.489,0.429,1.305,1.479
	c-0.085,0.513-0.472,1.081-1.228,1.647l-3.064,2.333L307.808,58.549z M303.509,54.814c0.055-0.371-0.069-0.67-0.429-0.67
	c-0.656,0-1.282,0.77-1.506,2.049c-0.016,0.082-0.03,0.154-0.045,0.225C302.784,56.121,303.395,55.382,303.509,54.814
	 M302.626,58.225c0.356,0,0.91-0.29,1.294-0.653l0.128,0.281c-0.469,0.526-1.18,0.938-1.793,0.938c-1.18,0-1.763-1.182-1.519-2.613
	c0.279-1.506,1.451-2.602,2.44-2.602c0.756,0,1.17,0.556,1.045,1.221c-0.13,0.74-0.957,1.638-2.72,2.007
	C301.492,57.668,301.843,58.225,302.626,58.225 M299.782,57.853l-0.147-0.281c-0.419,0.434-0.905,0.653-1.244,0.653
	c-0.884,0-1.193-0.771-0.999-1.92c0.277-1.521,0.981-2.273,1.471-2.273c0.563,0,0.135,0.946,0.718,0.946
	c0.302,0,0.429-0.236,0.469-0.465c0.06-0.339-0.185-0.938-1.119-0.938c-0.853,0-2.062,1.055-2.36,2.729
	c-0.255,1.421,0.274,2.485,1.441,2.485C298.615,58.791,299.27,58.434,299.782,57.853 M291.055,58.549l0.682-3.823
	c0.057-0.343,0.024-0.595-0.157-0.595c-0.175,0-0.472,0.212-0.571,0.327v-0.342c0.271-0.282,0.653-0.481,0.925-0.481
	c0.496,0,0.713,0.411,0.613,0.978l-0.032,0.129c0.429-0.695,1.037-1.166,1.65-1.166c0.968,0,1.222,0.91,1.008,2.116l-0.324,1.949
	c-0.058,0.324-0.042,0.584,0.152,0.584c0.157,0,0.456-0.22,0.57-0.317v0.329c-0.289,0.282-0.681,0.497-0.942,0.497
	c-0.493,0-0.693-0.427-0.605-0.995l0.339-1.975c0.172-0.925,0.087-1.522-0.596-1.522c-0.469,0-1.276,0.713-1.536,2.192l-0.379,2.115
	H291.055z M290.255,51.541c0.04-0.267-0.145-0.493-0.414-0.493c-0.271,0-0.538,0.227-0.596,0.493
	c-0.048,0.29,0.14,0.499,0.406,0.499C289.941,52.04,290.21,51.831,290.255,51.541 M289.088,57.641l0.528-3.028
	c0.1-0.566-0.114-0.978-0.613-0.978c-0.271,0-0.653,0.199-0.925,0.481v0.342c0.1-0.115,0.396-0.327,0.571-0.327
	c0.182,0,0.209,0.252,0.154,0.595l-0.539,3.013c-0.104,0.568,0.115,0.995,0.608,0.995c0.26,0,0.639-0.215,0.926-0.497v-0.329
	c-0.098,0.098-0.396,0.317-0.569,0.317C289.046,58.225,289.018,57.965,289.088,57.641 M282.093,58.791h-0.285l0.552-3.127h0.302
	c-0.16,1.377,0.329,2.562,1.759,2.562c0.613,0,1.382-0.499,1.571-1.479c0.109-0.698-0.162-1.234-1.157-1.989l-0.808-0.599
	c-0.541-0.414-1.054-1.097-0.854-2.244c0.197-1.167,1.153-2.137,2.261-2.137c0.668,0,1.013,0.272,1.297,0.589
	c0.154-0.145,0.323-0.359,0.434-0.656h0.286l-0.553,3.127h-0.3c0.133-1.14,0.043-2.485-1.191-2.485c-0.656,0-1.31,0.548-1.434,1.264
	c-0.13,0.768,0.281,1.264,0.893,1.703l0.883,0.628c0.84,0.611,1.222,1.478,1.052,2.373c-0.27,1.533-1.437,2.471-2.604,2.471
	c-0.867,0-1.348-0.523-1.595-0.743C282.45,58.195,282.203,58.477,282.093,58.791 M399.587,55.424h-63.586l-0.169,0.863h63.755
	V55.424z M278.337,56.288H3.613v-0.863h274.939L278.337,56.288z M26.141,19.44c0,0.756-0.446,1.519-1.131,1.82l-11.382,3.064V13.842
	h10.378c1.131,0,2.134,0.94,2.134,2.072V19.44z M35.61,19.44v-3.525c0-5.535-4.47-9.995-10.002-9.995H3.613v37.797h10.015V32.335
	l6.607-1.76l7.678,13.142h10.922l-8.885-15.28C33.347,26.795,35.61,23.337,35.61,19.44 M369.76,43.946V6.144h29.827v7.724h-19.782
	v6.522h15.406v7.839h-15.406v7.602h19.782v8.115H369.76z M364.031,32.764c0-12.599-23.337-10.669-23.337-16.57
	c0-2.326,2.612-3.862,6.587-3.862c4.034,0,7.946,2.046,11.018,4.996l5.845-4.996c-3.636-4.256-9.367-7.206-16.747-7.206
	c-10.048,0-16.349,5.388-16.349,11.863c0,13.391,23.155,10.158,23.155,16.57c0,2.387-1.811,4.204-6.074,4.204
	c-4.593,0-9.189-1.875-13.787-5.618l-5.276,6.017c5.164,4.141,10.839,6.803,18.278,6.803
	C357.05,44.965,364.031,39.748,364.031,32.764 M307.837,44.965c-11.408,0-17.311-6.07-17.311-14.129V6.144h10.1v24.354
	c0,4.201,2.608,6.638,7.548,6.638c5.054,0,7.38-2.437,7.38-6.638V6.144h9.423v24.693C324.977,38.786,319.296,44.965,307.837,44.965
	 M274.578,29.475c0,4.598-2.843,7.779-7.833,7.779c-5.052,0-7.835-3.182-7.835-7.779v-8.911c0-4.603,2.783-7.776,7.835-7.776
	c4.99,0,7.833,3.174,7.833,7.776V29.475z M284.79,28.677v-7.322c0-9.415-6.98-16.229-18.045-16.229
	c-11.071,0-18.111,6.814-18.111,16.229v7.322c0,9.428,7.04,16.288,18.111,16.288C277.809,44.965,284.79,38.105,284.79,28.677
	 M232.516,43.946V29.36l-14.315,3.823v10.763h-10.043V6.144h10.043V24.92l14.315-3.824V6.144h10.048v37.802H232.516z
	 M191.921,29.246c0,4.603-2.894,7.269-8.061,7.269h-6.695V13.583h6.695c5.167,0,8.061,2.665,8.061,7.263V29.246z M202.026,29.303
	v-8.235c0-8.28-5.793-14.925-17.596-14.925h-17.309v37.802h17.309C196.233,43.946,202.026,37.532,202.026,29.303 M151.403,43.946
	l-14.195-18.614l-2.897-3.864v22.479h-9.365V6.144h8.686l13.907,18.792l2.783,3.8V6.144h9.365v37.802H151.403z M117.966,30.836
	V6.144h-9.418v24.354c0,4.201-2.332,6.638-7.382,6.638c-4.938,0-7.547-2.437-7.547-6.638V6.144H83.517v24.693
	c0,8.059,5.903,14.129,17.31,14.129C112.288,44.965,117.966,38.786,117.966,30.836 M67.567,20.564c0-4.603-2.838-7.776-7.835-7.776
	c-5.047,0-7.833,3.174-7.833,7.776v8.911c0,4.598,2.785,7.779,7.833,7.779c4.997,0,7.835-3.182,7.835-7.779V20.564z M59.732,44.965
	c-11.067,0-18.105-6.86-18.105-16.288v-7.322c0-9.415,7.038-16.229,18.105-16.229c11.07,0,18.05,6.814,18.05,16.229v7.322
	C77.783,38.105,70.803,44.965,59.732,44.965"/>
</svg>
