<?xml version="1.0" encoding="utf-8"?>
<!-- Generator: Adobe Illustrator 16.0.4, SVG Export Plug-In . SVG Version: 6.00 Build 0)  -->
<!DOCTYPE svg PUBLIC "-//W3C//DTD SVG 1.1//EN" "http://www.w3.org/Graphics/SVG/1.1/DTD/svg11.dtd">
<svg version="1.1" id="Layer_1" xmlns="http://www.w3.org/2000/svg" xmlns:xlink="http://www.w3.org/1999/xlink" x="0px" y="0px"
	 viewBox="0 0 223 58" enable-background="new 0 0 223 58" xml:space="preserve">
<g id="BG_-_circle_71_">
	<g>
		<circle fill="#67A3C6" cx="27.833" cy="30.26" r="24"/>
	</g>
</g>
<g id="Base_5_">
	<g>
		<path fill="#FAFAFA" d="M39.833,16.26h-24c-1.104,0-2,0.84-2,1.875v23.25c0,1.035,0.896,1.875,2,1.875h24c1.104,0,2-0.84,2-1.875
			v-23.25C41.833,17.1,40.938,16.26,39.833,16.26z"/>
	</g>
</g>
<g id="White_Space">
	<g>
		<rect x="21.833" y="21.26" fill="#F1F2F2" width="20" height="17"/>
	</g>
</g>
<g id="Chrome">
	<g>
		<path fill="#E3E3E3" d="M13.833,41.26c0,1.105,0.955,2,2.134,2h23.733c1.178,0,2.133-0.895,2.133-2v-3h-28V41.26z M39.701,16.26
			H15.967c-1.179,0-2.134,0.896-2.134,2v5h28v-5C41.833,17.156,40.878,16.26,39.701,16.26z"/>
	</g>
</g>
<g id="Text_2_">
	<g>
		<path fill="#CDCCCC" d="M18.833,26.26h-4v1h4V26.26z M14.833,28.26v1h6v-1H14.833z M14.833,31.26h6v-1h-6V31.26z M14.833,33.26h6
			v-1h-6V33.26z"/>
	</g>
</g>
<g id="Close_Button">
	<g>
		<circle fill="#ED5C5C" cx="16.833" cy="20.26" r="1"/>
	</g>
</g>
<g id="Minus_Button">
	<g>
		<circle fill="#E5B44F" cx="20.833" cy="20.26" r="1"/>
	</g>
</g>
<g id="_Plus_Button">
	<g>
		<circle fill="#78BA43" cx="24.833" cy="20.26" r="1"/>
	</g>
</g>
<g id="Folders">
	<g>
		<path fill="#92B8E2" d="M23.833,29.26h4v-3h-4V29.26z M29.833,29.26h4v-3h-4V29.26z M35.833,26.26v3h4v-3H35.833z M23.833,34.26h4
			v-3h-4V34.26z M29.833,34.26h4v-3h-4V34.26z"/>
	</g>
</g>
<path fill="#FFFFFF" d="M40.958,34.938c0.099-2.726-3.562-4.354-3.438-6.677s3-2,3-4.01c0-1.209-0.688-2.188-2.171-2.108
	c-2.183,0.117-0.93,1.957-4.517,1.733c-1.732-0.108-1.732-0.108-3.93-3.749c-2.194-3.641-4.259,2.798-8.152,3.499
	c-1.054,0.188-3.732-0.993-5.271,1.398c-1.763,2.74-0.98,3.946,0.376,4.385s3.182,0.461,4.539,1.852
	c1.336,1.373,0.238,7.191,2.438,8.615c1.93,1.244,3.561-3.243,5.312-2.457c1.745,0.785,2.328,0.066,3.75,0.832
	C33.969,38.83,40.771,40.125,40.958,34.938z"/>
<g>
	<g id="Handle">
		<g>
			<path fill="#424242" d="M21.751,33.568l-2.121,0.707l-6.364,6.363c-0.846,0.846-0.846,1.982,0,2.828s1.983,0.846,2.828,0
				l6.364-6.363l0.707-2.121L21.751,33.568z"/>
		</g>
	</g>
	<g id="Arm">
		<g>
			<polygon fill="#808285" points="37.308,34.982 36.601,35.689 37.308,36.396 33.772,39.932 24.58,30.74 21.751,33.568 
				23.166,34.982 25.287,32.861 33.772,41.346 38.722,36.396 			"/>
		</g>
	</g>
	<g id="Roller">
		<g>
			<path fill="#E2DB8F" d="M38.722,32.154c-0.707-0.707-12.729-12.729-13.436-13.436s-1.473,0.059-1.473,0.059l-3.478,3.478
				c0,0-0.706,0.707,0,1.414c0.707,0.707,12.729,12.728,13.436,13.435s1.415,0,1.415,0l3.535-3.535
				C38.722,33.568,39.429,32.861,38.722,32.154z"/>
		</g>
	</g>
</g>
<path fill="#E2DB8F" d="M69.606,21.499c3.719,0,6.748,1.647,6.748,5.207c0,1.408-0.425,2.869-2.045,3.613
	c1.727,0.93,2.577,2.656,2.577,4.33c0,4.17-3.799,5.42-7.199,5.445h-9.59V21.499H69.606z M65.276,28.591h4.197
	c1.089,0,1.674-0.558,1.674-1.381s-0.584-1.461-1.621-1.461h-4.25V28.591z M65.276,36.003h4.437c1.328,0,1.966-0.718,1.966-1.753
	c0-1.01-0.664-1.78-1.966-1.78h-4.437V36.003z"/>
<path fill="#E2DB8F" d="M83.949,21.472v18.622h-4.835V21.472H83.949z"/>
<path fill="#E2DB8F" d="M96.566,26.971h4.596v13.123h-4.516l-0.212-1.408c-1.116,1.275-2.869,1.728-4.33,1.648
	c-3.852-0.24-6.004-2.977-6.004-6.801c0-3.879,2.55-6.854,6.375-6.854c1.86,0,3.162,0.638,3.852,1.7L96.566,26.971z M90.96,33.533
	c0,1.832,1.169,2.869,2.63,2.869c1.647,0,2.709-1.329,2.709-2.869c0-1.754-0.983-2.896-2.709-2.896
	C92.129,30.637,90.96,31.699,90.96,33.533z"/>
<path fill="#E2DB8F" d="M112.953,40.094v-7.252c0-1.621-0.929-2.178-1.833-2.178c-1.168,0-2.258,0.797-2.258,2.523v6.906h-4.835
	V26.971h4.33l0.212,1.435c1.116-1.302,2.763-1.78,4.145-1.753c2.763,0.027,5.127,1.488,5.127,6.164v7.278H112.953z"/>
<path fill="#E2DB8F" d="M125.463,21.499v9.324l2.736-3.852h5.446v0.213l-4.596,5.951l5.34,6.668v0.291h-5.526l-3.4-4.568v4.568
	h-4.914V21.499H125.463z"/>
<path fill="#E3E3E3" d="M137.214,22.8h-6.722v-1.275h14.877V22.8h-6.721v17.293h-1.435V22.8z"/>
<path fill="#E3E3E3" d="M149.086,21.499v7.917c1.062-1.886,2.896-2.604,4.729-2.63c3.666,0,5.499,2.365,5.499,5.792v7.518h-1.275
	v-7.518c0-2.709-1.274-4.542-4.224-4.542c-2.763,0-4.676,2.125-4.676,4.861v7.199h-1.302V21.499H149.086z"/>
<path fill="#E3E3E3" d="M161.967,33.533c0-3.932,2.976-6.775,6.668-6.775c3.693,0,6.987,2.258,6.482,7.385h-11.821
	c0.266,3.081,2.63,4.861,5.339,4.861c1.728,0,3.746-0.69,4.729-1.992l0.93,0.743c-1.275,1.674-3.56,2.524-5.659,2.524
	C164.942,40.28,161.967,37.703,161.967,33.533z M173.948,33.002c-0.026-3.242-2.151-5.048-5.313-5.048
	c-2.709,0-5.047,1.833-5.339,5.048H173.948z"/>
<path fill="#E3E3E3" d="M197.669,40.094V32.23c0-2.523-1.7-4.303-4.197-4.303s-4.225,1.859-4.225,4.383v7.783h-1.301v-7.783
	c0-2.524-1.728-4.357-4.225-4.357s-4.197,1.833-4.197,4.357v7.783h-1.302V26.971h1.223l0.026,2.179
	c0.903-1.727,2.576-2.444,4.276-2.444c1.993,0,4.092,0.903,4.862,3.241c0.797-2.152,2.842-3.241,4.861-3.241
	c3.214,0,5.499,2.258,5.499,5.525v7.863H197.669z"/>
<path fill="#E3E3E3" d="M201.889,33.533c0-3.932,2.976-6.775,6.668-6.775c3.693,0,6.987,2.258,6.482,7.385h-11.821
	c0.266,3.081,2.63,4.861,5.339,4.861c1.728,0,3.746-0.69,4.729-1.992l0.93,0.743c-1.275,1.674-3.56,2.524-5.659,2.524
	C204.864,40.28,201.889,37.703,201.889,33.533z M213.87,33.002c-0.026-3.242-2.151-5.048-5.313-5.048
	c-2.709,0-5.047,1.833-5.339,5.048H213.87z"/>
</svg>
